<?xml version="1.0" encoding="UTF-8"?>
<svg width="200" height="60" viewBox="0 0 200 60" xmlns="http://www.w3.org/2000/svg">
  <!-- Gradient definitions -->
  <defs>
    <linearGradient id="goldGradient" x1="0%" y1="0%" x2="100%" y2="100%">
      <stop offset="0%" style="stop-color:#FFC649;stop-opacity:1" />
      <stop offset="50%" style="stop-color:#D4AF37;stop-opacity:1" />
      <stop offset="100%" style="stop-color:#B8960A;stop-opacity:1" />
    </linearGradient>
    <radialGradient id="glowGradient" cx="50%" cy="50%" r="50%">
      <stop offset="0%" style="stop-color:#FFC649;stop-opacity:0.3" />
      <stop offset="100%" style="stop-color:#D4AF37;stop-opacity:0" />
    </radialGradient>
  </defs>
  
  <!-- Glow background -->
  <circle cx="30" cy="30" r="25" fill="url(#glowGradient)"/>
  
  <!-- Lady silhouette with headphones -->
  <g transform="translate(10, 10)">
    <!-- Head outline -->
    <ellipse cx="20" cy="18" rx="12" ry="14" fill="url(#goldGradient)" opacity="0.9"/>
    
    <!-- Hair detail -->
    <path d="M10 12C10 8 14 5 20 5C26 5 30 8 30 12V20C30 22 28.5 23.5 26.5 24C24.5 24.5 22 24.5 20 24.5C18 24.5 15.5 24.5 13.5 24C11.5 23.5 10 22 10 20V12Z" 
          fill="#FFC649" opacity="0.7"/>
    
    <!-- Left headphone -->
    <ellipse cx="4" cy="18" rx="4" ry="6" fill="url(#goldGradient)"/>
    <ellipse cx="4" cy="18" rx="2.5" ry="4.5" fill="#D4AF37"/>
    <circle cx="4" cy="18" r="1.5" fill="#FFC649"/>
    
    <!-- Right headphone -->
    <ellipse cx="36" cy="18" rx="4" ry="6" fill="url(#goldGradient)"/>
    <ellipse cx="36" cy="18" rx="2.5" ry="4.5" fill="#D4AF37"/>
    <circle cx="36" cy="18" r="1.5" fill="#FFC649"/>
    
    <!-- Headphone band -->
    <path d="M6 12C6 6 12 2 20 2C28 2 34 6 34 12" 
          stroke="url(#goldGradient)" stroke-width="2.5" fill="none" stroke-linecap="round"/>
    
    <!-- Musical note accent -->
    <circle cx="28" cy="8" r="2" fill="#FFC649"/>
    <rect x="27.5" y="10" width="1" height="8" fill="#FFC649"/>
    <path d="M28.5 10L32 8.5V16L28.5 18" stroke="#FFC649" stroke-width="1" fill="none"/>
    
    <!-- Face details (minimal, elegant) -->
    <ellipse cx="16" cy="16" rx="1" ry="1.5" fill="#B8960A" opacity="0.6"/>
    <ellipse cx="24" cy="16" rx="1" ry="1.5" fill="#B8960A" opacity="0.6"/>
    <path d="M18 22C18.5 23 19.5 23.5 20 23.5C20.5 23.5 21.5 23 22 22" 
          stroke="#B8960A" stroke-width="0.8" fill="none" stroke-linecap="round"/>
  </g>
  
  <!-- Brand text -->
  <text x="70" y="22" font-family="Arial, sans-serif" font-size="16" font-weight="bold" fill="url(#goldGradient)" letter-spacing="1px">ORINOWO</text>
  <text x="70" y="36" font-family="Arial, sans-serif" font-size="8" fill="#FFC649" opacity="0.9" letter-spacing="0.5px">LUXURY AI MUSIC STUDIO</text>
  
  <!-- Decorative elements -->
  <circle cx="180" cy="15" r="1.5" fill="#FFC649" opacity="0.6"/>
  <circle cx="185" cy="20" r="1" fill="#D4AF37" opacity="0.8"/>
  <circle cx="182" cy="25" r="0.8" fill="#FFC649" opacity="0.7"/>
</svg>
