<?xml version="1.0" encoding="UTF-8"?>
<svg width="512" height="512" viewBox="0 0 512 512" xmlns="http://www.w3.org/2000/svg">
 <defs>
 <linearGradient id="g1" x1="0" x2="1" y1="0" y2="1">
 <stop offset="0%" stop-color="#7C3AED"/>
 <stop offset="100%" stop-color="#22D3EE"/>
 </linearGradient>
 <linearGradient id="g2" x1="0" x2="1" y1="0" y2="0">
 <stop offset="0%" stop-color="#22D3EE"/>
 <stop offset="100%" stop-color="#A78BFA"/>
 </linearGradient>
 </defs>

 <!-- round disc / record -->
 <circle cx="256" cy="256" r="160" fill="url(#g1)"/>
 <circle cx="256" cy="256" r="116" fill="none" stroke="#0EA5E9" stroke-width="14" opacity="0.9"/>

 <!-- minimal hoodie boy silhouette (abstract) -->
 <path d="M170 210c15-50 56-80 86-80s72 30 86 80c6 21-10 40-34 40-12 0-22-7-35-7s-23 7-35 7c-24 0-40-19-38-40z"
 fill="#0B1220" opacity="0.4"/>

 <!-- neon headphones -->
 <path d="M136 248c0-68 54-112 120-112s120 44 120 112" fill="none" stroke="url(#g2)" stroke-width="22" stroke-linecap="round"/>
 <circle cx="136" cy="280" r="42" fill="#0B1220" stroke="#22D3EE" stroke-width="10"/>
 <circle cx="376" cy="280" r="42" fill="#0B1220" stroke="#A78BFA" stroke-width="10"/>

 <!-- glow ring -->
 <ellipse cx="256" cy="388" rx="150" ry="28" fill="url(#g2)" opacity="0.25"/>
</svg>
