<svg viewBox="0 0 320 180" fill="none" xmlns="http://www.w3.org/2000/svg">
  <rect width="320" height="180" rx="32" fill="#0B1220"/>
  <!-- Park bench -->
  <rect x="60" y="130" width="200" height="16" rx="6" fill="#161a31"/>
  <rect x="80" y="146" width="160" height="8" rx="4" fill="#1f2443"/>
  <!-- Boy in hoodie, facing away -->
  <ellipse cx="160" cy="110" rx="22" ry="28" fill="url(#hoodie)"/>
  <path d="M138 110 Q160 90 182 110 Q170 80 160 70 Q150 80 138 110Z" fill="#7C5CFA"/>
  <!-- Headphones -->
  <ellipse cx="160" cy="90" rx="16" ry="8" fill="none" stroke="#14B8A6" stroke-width="3"/>
  <rect x="148" y="82" width="8" height="16" rx="4" fill="#7C5CFA"/>
  <rect x="164" y="82" width="8" height="16" rx="4" fill="#7C5CFA"/>
  <!-- Music waves -->
  <path d="M160 90 C180 60, 220 70, 260 40" stroke="#8B5CF6" stroke-width="3" fill="none"/>
  <path d="M160 90 C140 60, 100 70, 60 40" stroke="#F59E0B" stroke-width="3" fill="none"/>
  <!-- Birds flying away with music waves -->
  <path d="M260 40 Q265 35, 270 40 Q275 45, 280 40" stroke="#3B82F6" stroke-width="2" fill="none"/>
  <ellipse cx="265" cy="35" rx="4" ry="2" fill="#FFC649"/>
  <path d="M60 40 Q65 35, 70 40 Q75 45, 80 40" stroke="#14B8A6" stroke-width="2" fill="none"/>
  <ellipse cx="65" cy="35" rx="4" ry="2" fill="#F43F5E"/>
  <!-- Brand wordmark -->
  <text x="160" y="172" text-anchor="middle" font-family="Inter, ui-sans-serif" font-size="28" font-weight="bold" fill="url(#g)">ORINOWO</text>
  <defs>
    <linearGradient id="hoodie" x1="138" y1="70" x2="182" y2="110" gradientUnits="userSpaceOnUse">
      <stop stop-color="#7C5CFA"/>
      <stop offset="1" stop-color="#14B8A6"/>
    </linearGradient>
    <linearGradient id="g" x1="0" y1="0" x2="1" y2="1">
      <stop offset="0%" stop-color="#7C5CFA"/>
      <stop offset="100%" stop-color="#14B8A6"/>
    </linearGradient>
  </defs>
</svg>
